<?xml version="1.0" encoding="UTF-8" standalone="no"?>
<!DOCTYPE svg PUBLIC "-//W3C//DTD SVG 1.1//EN" "http://www.w3.org/Graphics/SVG/1.1/DTD/svg11.dtd">
<svg version="1.1" xmlns="http://www.w3.org/2000/svg" xmlns:xlink="http://www.w3.org/1999/xlink" preserveAspectRatio="xMidYMid meet" viewBox="0 0 640 640" width="640" height="640"><defs><path d="M292.74 23.96C270.54 36.43 92.95 136.22 70.75 148.69C53.84 158.19 43.2 175.97 43.2 195.26C43.2 220.21 43.2 419.8 43.2 444.75C43.2 464.04 53.84 481.81 70.75 491.32C92.95 503.79 270.54 603.57 292.74 616.05C309.65 625.55 330.35 625.55 347.26 616.05C369.46 603.57 547.08 503.79 569.28 491.32C586.18 481.8 596.8 464.01 596.8 444.72C596.8 419.77 596.8 220.21 596.8 195.26C596.8 175.97 586.16 158.19 569.25 148.69C547.05 136.22 369.46 36.43 347.26 23.96C338.81 19.21 329.41 16.83 320 16.83C310.59 16.83 301.19 19.21 292.74 23.96ZM334.37 46.92C356.56 59.4 534.16 159.18 556.36 171.65C565.2 176.62 570.44 185.6 570.44 195.26C570.44 202.7 570.44 239.88 570.44 306.81L544.08 306.81L544.08 280.45L517.71 280.45L517.71 306.81L491.35 306.81L491.35 333.17L517.71 333.17L517.71 359.53L544.08 359.53L544.08 333.17L570.44 333.17C570.44 400.1 570.44 437.28 570.44 444.72C570.44 454.37 565.18 463.34 556.33 468.33C534.13 480.8 356.56 580.58 334.37 593.06C325.52 598.03 314.48 598.03 305.63 593.06C283.44 580.58 105.84 480.8 83.64 468.33C74.8 463.36 69.56 454.4 69.56 444.75C69.56 419.8 69.56 220.21 69.56 195.26C69.56 185.6 74.8 176.62 83.64 171.65C105.84 159.18 283.44 59.4 305.63 46.92C310.06 44.44 315.03 43.19 320 43.19C324.97 43.19 329.94 44.44 334.37 46.92ZM148.65 319.99C148.65 414.36 225.63 491.34 320 491.34C373.9 491.34 423.94 466.21 456.26 423.63C456.87 422.84 459.88 418.88 465.3 411.74L385.47 365.53C381.17 370.21 378.79 372.81 378.31 373.33C363.41 389.61 342.28 399.08 320 399.08C276.27 399.08 240.91 363.72 240.91 319.99C240.91 276.26 276.27 240.9 320 240.9C342.28 240.9 363.41 250.37 378.31 266.65C378.79 267.17 381.17 269.77 385.47 274.45L465.3 228.24C459.88 221.1 456.87 217.14 456.26 216.34C423.94 173.77 373.9 148.64 320 148.64C225.63 148.64 148.65 225.62 148.65 319.99ZM424.73 221.26C421.11 223.36 392.17 240.12 388.56 242.22C369.51 225.49 345.84 214.54 320 214.54C261.97 214.54 214.55 261.96 214.55 319.99C214.55 378.02 261.97 425.44 320 425.44C345.84 425.44 369.51 414.49 388.56 397.76C392.17 399.86 421.11 416.62 424.73 418.72C397.58 447.65 360.54 464.98 320 464.98C239.93 464.98 175.01 400.06 175.01 319.99C175.01 239.92 239.93 175 320 175C360.54 175 397.58 192.33 424.73 221.26ZM425.45 306.81L399.09 306.81L399.09 333.17L425.45 333.17L425.45 359.53L451.81 359.53L451.81 333.17L478.17 333.17L478.17 306.81L451.81 306.81L451.81 280.45L425.45 280.45L425.45 306.81Z" id="b1hByJNtzX"></path></defs><g><g><g><use xlink:href="#b1hByJNtzX" opacity="1" fill="#333333" fill-opacity="1"></use><g><use xlink:href="#b1hByJNtzX" opacity="1" fill-opacity="0" stroke="#000000" stroke-width="0" stroke-opacity="0"></use></g></g></g></g></svg>