<?xml version="1.0" encoding="UTF-8" standalone="no"?>
<!DOCTYPE svg PUBLIC "-//W3C//DTD SVG 1.1//EN" "http://www.w3.org/Graphics/SVG/1.1/DTD/svg11.dtd">
<svg version="1.1" xmlns="http://www.w3.org/2000/svg" xmlns:xlink="http://www.w3.org/1999/xlink" preserveAspectRatio="xMidYMid meet" viewBox="0 0 640 640" width="640" height="640"><defs><path d="M260.49 495.02C305.82 500.25 328.98 499.5 378.91 489.96C378.91 489.96 392.06 498.27 410.42 505.46C298.43 553.91 156.98 502.66 244.93 477.85C248.04 481.29 223.08 490.69 260.49 495.02ZM244.17 436.86C292.6 441.9 330.82 442.32 397.01 429.46C397.01 429.46 406.15 438.82 420.53 443.94C285.15 483.92 134.38 447.09 231.24 414.63C233.82 419.08 206.73 432.95 244.17 436.86Z" id="dsy8fyaEl"></path><path d="M339.35 368.31C339.35 368.31 409.41 331.8 377.23 286.07C347.19 243.44 324.14 222.26 448.89 149.22C448.88 149.22 253.07 198.58 346.58 307.38C374.19 339.46 340.79 356.12 339.35 368.31Z" id="c6DKRjjHfX"></path><path d="M476.87 548.49C412.25 568.25 207.87 574.21 151.1 549.28C130.7 540.31 168.97 527.88 181 525.25C193.56 522.51 200.72 523.01 200.72 523.01C178.03 506.87 54.03 554.7 137.75 568.42C366.03 605.79 553.89 551.59 494.68 524.62C491.12 529.39 510.85 538.08 476.87 548.49ZM218.63 383.12C246.99 386.95 303.48 386.07 356.14 381.61C399.17 377.96 442.36 370.16 442.36 370.16C442.36 370.16 427.2 376.73 416.21 384.29C310.64 412.33 106.71 399.27 165.43 370.61C215.07 346.36 255.44 349.12 255.44 349.12C255.44 349.12 151.49 374.06 218.63 383.12ZM464.98 351.25C456.51 353.04 452.71 354.58 452.71 354.58C452.71 354.58 455.87 349.59 461.88 347.44C530.4 323.13 583.09 419.17 439.79 457.2C439.78 457.2 441.43 455.7 441.93 454.36C549.24 398.07 499.62 343.96 464.98 351.25Z" id="b5Dxbdpegu"></path><path d="M320.86 183.56C228 257.62 299.69 299.83 320.83 348.07C266.61 298.7 226.85 255.22 253.52 214.77C292.69 155.39 401.21 126.59 377.23 31.25C377.23 31.25 436.65 91.28 320.86 183.56Z" id="g7m7qdxY6l"></path><path d="M530.93 554.03C530.93 554.03 523.72 572.68 445.8 587.48C357.88 604.19 249.43 602.24 185.13 591.53C185.13 591.53 198.3 602.54 265.99 606.93C368.98 613.58 527.17 603.24 530.93 554.03Z" id="b1ndBLgeVV"></path></defs><g><g><g><use xlink:href="#dsy8fyaEl" opacity="1" fill="#333333" fill-opacity="1"></use><g><use xlink:href="#dsy8fyaEl" opacity="1" fill-opacity="0" stroke="#000000" stroke-width="0" stroke-opacity="0"></use></g></g><g><use xlink:href="#c6DKRjjHfX" opacity="1" fill="#333333" fill-opacity="1"></use><g><use xlink:href="#c6DKRjjHfX" opacity="1" fill-opacity="0" stroke="#000000" stroke-width="0" stroke-opacity="0"></use></g></g><g><use xlink:href="#b5Dxbdpegu" opacity="1" fill="#333333" fill-opacity="1"></use><g><use xlink:href="#b5Dxbdpegu" opacity="1" fill-opacity="0" stroke="#000000" stroke-width="0" stroke-opacity="0"></use></g></g><g><use xlink:href="#g7m7qdxY6l" opacity="1" fill="#333333" fill-opacity="1"></use><g><use xlink:href="#g7m7qdxY6l" opacity="1" fill-opacity="0" stroke="#000000" stroke-width="0" stroke-opacity="0"></use></g></g><g><use xlink:href="#b1ndBLgeVV" opacity="1" fill="#333333" fill-opacity="1"></use><g><use xlink:href="#b1ndBLgeVV" opacity="1" fill-opacity="0" stroke="#000000" stroke-width="0" stroke-opacity="0"></use></g></g></g></g></svg>